<?xml version="1.0" encoding="utf-8"?>
<!-- Generator: Adobe Illustrator 14.0.0, SVG Export Plug-In . SVG Version: 6.00 Build 43363)  -->
<!DOCTYPE svg PUBLIC "-//W3C//DTD SVG 1.1//EN" "http://www.w3.org/Graphics/SVG/1.1/DTD/svg11.dtd">
<svg version="1.1" id="Layer_1" xmlns="http://www.w3.org/2000/svg" xmlns:xlink="http://www.w3.org/1999/xlink" x="0px" y="0px"
	 width="640px" height="480px" viewBox="0 0 640 480" enable-background="new 0 0 640 480" xml:space="preserve">
<rect fill="#00081F" stroke="#1500DF" width="640" height="480"/>
<g>
	<g id="XMLID_1_">
		<g>
			<path fill="#FFFFFF" d="M381.098,248.063c0,7.67-0.591,15.209-1.729,22.58c-13.14,0.51-5.89-18.371-3.91-23.381
				c3.899-9.88-0.14-18.09,0.812-28.229c0,0,1.318-2.12,1.318-2.93C379.889,226.401,381.098,237.091,381.098,248.063z"/>
			<path fill="#2B38F2" d="M253.637,239.171c-1.79,8.931,17.49,3.261,22.54,3.08c-2.05-5.8-12.19-4.15-19.2-3.36
				c-1.06-0.02-2.14-0.01-3.17-0.42C253.737,238.711,253.677,238.951,253.637,239.171z M375.457,247.262
				c-1.979,5.01-9.229,23.891,3.91,23.381c-2.67,17.219-8.35,33.479-16.49,48.26c-0.37,0.68-0.76,1.359-1.148,2.029
				c-2.78,2.739-9.66,5.359-9.66,5.359c-7.92,6.67-18.58,10.63-24.82,20.32c-5.53,8.59-12.9,17.51-16.61,27.479
				c-7.28,4.591-14.99,8.591-23.05,11.95l-0.03-0.069c0.49-2.949,2.36-4.841,4.64-6.479c4.88-0.21,12.31-2.71,10.56-8.72
				c-0.27-0.021-0.55-0.03-0.83-0.03c2.46-4.3,4.2-8.8,7.18-12.41c7.59-9.229,16.01-18.8,20.22-29.6c3.12-8,17.18-35.82,6.609-41.95
				c-2.311-1.35-6.229,0.369-8.83-1.04c-4.209-2.271-3.109-3.75-6.289-7.271c-4.07-4.49-11.541-11.109-17.8-12
				c-3.02-6.341-13.23-7.021-19.33-8.939c-10.05-3.16-11.81-3-18.52,4.26c-1.99,2.16-9.61,11.021-13.14,10.5
				c-5.63-0.83-6.46-9.84-11.92-11.471c-1.37-4.289-1.89-8.84-2.99-13.229c1.47-2.729,3.57-6.29,6.08-8.479
				c0.76,0.27,1.63,0.56,2.24,0.78c1.49-3.44,1.04-7.32,0.85-11.04c-2.02-2.1-5.88-6.18-9.54-5.61c-4.4,0.7-3.69,5.35-4.84,9.5
				l0.05,0.34c-2.13,1.12-1.24,2.44-3.22,3.57c-1.93,1.1-4.86-1.17-6.3,1.13c-3.37,5.399,1.73,7.989,6.91,6.93
				c0.77-3.278,3.16-4.03,6.45-2.96c0.17,1.79,1.19,3.42,1.19,5.34c-0.33-1.27-0.72-2.51-1.19-3.738
				c-1.24-0.182-2.52-0.262-3.75,0.01c-0.2,1.42-0.94,2.27-1.08,3.76c-9.56,6.609-13.48-4.49-15.23-11.92
				c-1.1-4.69-0.99-8.51,1.61-12.36c0.92-1.35,7.33-7.77,8.9-8.71c4.56-2.72,21.11-1.48,25.66,1.01c7.23,3.96,4.7,17.28,10.5,19.11
				c1.53-8.14-2.16-15.25-3.08-23.91c-1.04-9.79,1.31-13.98,4.82-21.98c3.42-7.81-1.08-15.89,1.61-24.19
				c0.87-2.66,2.91-6.31,4.05-8.85c1.06-2.37,1.06-4.55,2.41-6.51c1.44-2.09,3.57,1.42,4.05-3.17c0,0,0.8-3.14,0.8-4.21
				c5.53,1.26,9.27-1.34,14.28-1.42c-2.09-0.73-3.97-2.44-5.91-3.44c1.12-1.19,1.11-2.51,2.02-3.69c-5.5-0.12-6.35-3.83-5.43-8.89
				c8.82-1.47,8.16,3.57,13.71,6.98c2.37,1.45,6.44,1.94,8.77,3.36c1.12,0.69,4.02,3.73,5.58,4.86
				c11.221,8.07,16.971,16.78,16.99,32.02c2.38-6.94,2.99-12.74,3.32-20.5c8.05,5.77,9.778,23.08,11.18,32.01
				c1.73,10.96-2.79,20.61-3.9,31.35c2.32,0.4,5.551,0.42,7.842,0c1.648-5,3.379-11.34,4.17-16.83c0.398-2.8-0.78-6.14-0.102-8.87
				c0.78-3.11,4.352-3.67,3.971-7.93c-0.721-0.3-1.41-0.03-2.16-0.24c-0.989-3.58-2.92-5.66-3.399-9.27
				c7.92,7.16,12.771,16.27,13.91,27.05c2.01-1.96,4.899-2.98,7.899-2.34c0,0,1.431,0.11,1.791,0.47c0,0,0.02,0.01,0.01,0.02
				c2.459,6.46,4.459,13.13,5.979,19.97c0,0.81-1.318,2.93-1.318,2.93C375.316,229.171,379.357,237.381,375.457,247.262z
				 M372.646,234.761c5.891-11.74-15.351-8.37-19.67-5.91c-0.261,7.18,0.34,19.959,9.58,20.831
				C356.407,236.491,369.877,240.301,372.646,234.761z"/>
			<path fill="#FFFFFF" d="M352.979,228.851c4.318-2.46,25.56-5.83,19.67,5.91c-2.771,5.54-16.24,1.73-10.09,14.921
				C353.316,248.813,352.717,236.031,352.979,228.851z"/>
			<path fill="#FFFFFF" d="M371.598,196.111c-0.359-0.36-1.789-0.47-1.789-0.47c-3-0.64-5.892,0.38-7.9,2.34
				c-1.141-10.78-5.99-19.89-13.91-27.05c0.48,3.61,2.41,5.69,3.4,9.27c0.75,0.21,1.438-0.06,2.16,0.24
				c0.379,4.26-3.19,4.82-3.972,7.93c-0.68,2.73,0.5,6.07,0.101,8.87c-0.789,5.49-2.521,11.83-4.17,16.83
				c-2.289,0.42-5.521,0.4-7.841,0c1.11-10.74,5.632-20.39,3.9-31.35c-1.4-8.93-3.13-26.24-11.181-32.01
				c-0.33,7.76-0.939,13.56-3.319,20.5c-0.021-15.24-5.771-23.95-16.99-32.02c-1.56-1.13-4.46-4.17-5.58-4.86
				c-2.33-1.42-6.4-1.91-8.77-3.36c-5.55-3.41-4.89-8.45-13.71-6.98c-0.92,5.06-0.07,8.77,5.43,8.89c-0.91,1.18-0.9,2.5-2.02,3.69
				c1.94,1,3.82,2.71,5.91,3.44c-5.01,0.08-8.75,2.68-14.28,1.42c-4.18-0.95-7-3.91-11.27-4.68c-10.72-1.91-13.92,7.63-22.64,11.45
				c-2.67,1.17-3.62,2.08-6.41,3.09s-4.32-0.87-6.67,1.43c-2.92,2.88-0.98,9.02-1.57,12.91c-1.24,7.97-7.15,16.03-16.64,14.57
				c0.59-1.6-0.01-4.67,0.56-6.25c-6.72,1.03-10.55,10.47-19.93,8.65c0.67-0.7,1.15-2.14,2.25-2.9
				c-9.64-0.78-18.08-3.43-23.02-12.34c5.43,0.4,8.53,4.92,14.03,5.7c4.51,0.64,10.45-1.19,14.54-2.62
				c9.7-3.38,15.98-8.55,18.56-19.05c-7.74,0.16-9.62,7.87-18.4,7.78c-7.6-0.07-16.22-5.94-22.45-5.34
				c0.56,7.57,3.25,9.34,8.7,14.31c-4.83-2.18-15.6-7.46-18.33-12.82c-1.47-2.89-1.34-5.8-0.82-8.7c0.68-3.83,2.04-7.64,1.28-11.4
				c-3.32,1.48-3.6,4.91-6.06,6.61c-2.67,1.85-6.21,2.19-9.31,3.83c-5.41,2.87-9.52,11.16-14.96,12.22
				c-0.13,4.48,1.42,8.37-0.35,12.56c-1.82,4.32-6.64,5.56-6.13,10.57c6.13,1.47,12.81,0.81,19.11,0.24
				c-0.66,12.73,9.61,32.29-6.31,38.61c-8.2,3.25-13.82-0.32-20.8,7.41c-5.12,5.67-3.58,13.16-5.95,20.67
				c-18.61,2.039-18.27-39.92-7.42-48.061c-10.22-5.27,4.63-22.49,5.26-29.1c3.63-1.84,1.95-5.57,5.37-7.54
				c0.19-1.16-0.13-2.51,0.01-3.59c-7.68,0.94-18.08,18.61-26.29,11.16c26.95-43.59,76.01-72.75,132.06-72.75
				C293.377,98.061,349.907,138.871,371.598,196.111z"/>
			<path fill="#FFFFFF" d="M352.066,326.291c0,0,6.881-2.62,9.66-5.359c-12.311,21.54-29.91,39.811-51.089,53.159
				c3.71-9.97,11.08-18.89,16.61-27.479C333.486,336.921,344.146,332.961,352.066,326.291z"/>
			<path fill="#037F00" d="M335.938,286.781c10.569,6.13-3.489,33.95-6.609,41.95c-4.21,10.8-12.63,20.369-20.22,29.6
				c-2.98,3.61-4.72,8.11-7.18,12.41c-3.99-0.03-8.38,1.229-11.21,3.63c0.06-4.061,1.07-14.6-5.8-9.609
				c-3.83,2.779-2.51,9.92-7.91,13.659c0.29-2.12-0.08-4.239-0.93-6.31c1.29-5.21,1.31-10.7-1.41-16.812
				c-3.2-7.22-8.08-5.77-13.55-9.818c-4.85-3.602-7.8-9.312-11.47-13.32c-4.19-4.58-9.15-6.649-9.68-13.13
				c-0.43-5.46,2.74-12.78,3.84-17.94c1.26-5.93,4.06-10.271,5.82-15.108c1.47-4.062,0.03-17.65-4.96-9.83
				c-4.67,0.869-7.65-4.73-10.36-7.102c-2.9-2.529-7.84-5.76-11.25-7.3c-3.95-1.778-8.05-2.899-12.05-4.319
				c-0.54-2.58-1.97-5.261-3.3-6.32c-3.67-2.93-8.32-2.029-12-4.029c-3.92-5.45-6.48-12.87-9.77-19.18
				c-3.47-6.66-2.76-21.05-12.82-19.23c2.74,4.6,4.4,14.14,5.4,19.15c-5.52-3.69-6.75-7.96-9.33-13.79
				c-2.88-6.48-6.25-9.79-9.25-16.58c-3.14-7.07-6.28-11.29-5.45-19.55c0.66-6.57,3.57-12.6,4.03-19.35
				c-0.41-5.72,5.86-7.81,8.07-12.1l0.97,0.17c-0.52,2.9-0.65,5.81,0.82,8.7c2.73,5.36,13.5,10.64,18.33,12.82
				c-5.45-4.97-8.14-6.74-8.7-14.31c6.23-0.6,14.85,5.27,22.45,5.34c8.78,0.09,10.66-7.62,18.4-7.78
				c-2.58,10.5-8.86,15.67-18.56,19.05c-4.09,1.43-10.03,3.26-14.54,2.62c-5.5-0.78-8.6-5.3-14.03-5.7
				c4.94,8.91,13.38,11.56,23.02,12.34c-1.1,0.76-1.58,2.2-2.25,2.9c9.38,1.82,13.21-7.62,19.93-8.65
				c-0.57,1.58,0.03,4.65-0.56,6.25c9.49,1.46,15.4-6.6,16.64-14.57c0.59-3.89-1.35-10.03,1.57-12.91c2.35-2.3,3.88-0.42,6.67-1.43
				s3.74-1.92,6.41-3.09c8.72-3.82,11.92-13.36,22.64-11.45c4.27,0.77,7.09,3.73,11.27,4.68c0,1.07-0.8,4.21-0.8,4.21
				c-0.48,4.59-2.61,1.08-4.05,3.17c-1.35,1.96-1.35,4.14-2.41,6.51c-1.14,2.54-3.18,6.19-4.05,8.85
				c-2.69,8.3,1.81,16.38-1.61,24.19c-3.51,8-5.86,12.19-4.82,21.98c0.92,8.66,4.61,15.77,3.08,23.91
				c-5.8-1.83-3.27-15.15-10.5-19.11c-4.55-2.49-21.1-3.73-25.66-1.01c-1.57,0.94-7.98,7.36-8.9,8.71
				c-2.6,3.85-2.71,7.67-1.61,12.36c1.75,7.43,5.67,18.53,15.23,11.92c0.14-1.49,0.88-2.34,1.08-3.761
				c1.23-0.271,2.51-0.189,3.75-0.01c0.47,1.229,0.86,2.471,1.19,3.739v0.011c0,0.291-0.03,0.58-0.08,0.881
				c0.07-0.131,0.14-0.26,0.21-0.392c1.1,4.392,1.62,8.94,2.99,13.229c5.46,1.631,6.29,10.641,11.92,11.471
				c3.53,0.521,11.15-8.34,13.14-10.5c6.71-7.26,8.47-7.42,18.52-4.26c6.1,1.92,16.31,2.6,19.33,8.939
				c6.26,0.891,13.73,7.51,17.8,12c3.18,3.521,2.08,5,6.289,7.271C329.707,287.15,333.627,285.432,335.938,286.781z"/>
			<path fill="#FFFFFF" d="M302.757,370.771c1.75,6.01-5.68,8.51-10.56,8.72c3.04-2.2,6.8-3.96,8.84-7.229
				c0.31-0.5,0.61-1.011,0.89-1.521C302.207,370.741,302.487,370.751,302.757,370.771z"/>
			<path fill="#FFFFFF" d="M292.197,379.491c-2.28,1.64-4.15,3.53-4.64,6.479l0.03,0.069c-18.58,7.74-39.03,12.021-60.52,12.021
				c-49.33,0-93.24-22.579-121.43-57.699l0.46-0.36c10.29-0.45,18.3,8.2,26.58,13.08c8.9,5.26,18.97,11,28.24,15.12
				c10.1,4.49,20.94,6.25,31.26,11.47c7.23,3.66,18.24,15.641,26.76,13.391c-5.2-4.779-16.95-19.399-13.46-27.88
				c4.96-12.069,15.62,5.96,18.18,11.051c0.31-4.091-0.92-10.271,1.7-12.74c-3.34,10.16,0.72,27.49,14.53,24.729
				c-2.97-3.2-3.1-7.939-0.9-11.689c0.34,1.75,1.34,2.979,1.79,4.56c-0.01,0.03-0.03,0.07-0.04,0.11c0.03,0.6,0.06,0.6,0.08,0
				c-0.01-0.04-0.02-0.07-0.04-0.11c0.97-2.52,1.56-3.18,2.95-4.858c-11.84,17.97,42.5,23.568,22.27-6.61
				c-13.86-20.689-36.11-13.01-57.39-14.46c8.74-11.58,28.18-12.53,40.24-6.13c7.73,4.09,23.11,13.1,27.23,23.08
				c0.85,2.069,1.22,4.188,0.93,6.31c5.4-3.739,4.08-10.88,7.91-13.659c6.87-4.989,5.86,5.551,5.8,9.609
				c2.83-2.399,7.22-3.66,11.21-3.63c-0.28,0.51-0.58,1.021-0.89,1.521C298.997,375.531,295.237,377.291,292.197,379.491z"/>
			<path fill="#2B38F2" d="M274.667,355.301c2.72,6.11,2.7,11.602,1.41,16.812c-4.12-9.98-19.5-18.99-27.23-23.08
				c-12.06-6.4-31.5-5.45-40.24,6.13c21.28,1.45,43.53-6.229,57.39,14.46c20.23,30.18-34.11,24.58-22.27,6.61
				c-1.39,1.68-1.98,2.34-2.95,4.858c-0.45-1.579-1.45-2.81-1.79-4.56c-2.2,3.75-2.07,8.49,0.9,11.689
				c-13.81,2.761-17.87-14.569-14.53-24.729c-2.62,2.47-1.39,8.649-1.7,12.74c-2.56-5.091-13.22-23.12-18.18-11.051
				c-3.49,8.479,8.26,23.101,13.46,27.88c-8.52,2.25-19.53-9.729-26.76-13.391c-10.32-5.22-21.16-6.979-31.26-11.47
				c-9.27-4.12-19.34-9.86-28.24-15.12c-8.28-4.88-16.29-13.53-26.58-13.08l-0.46,0.36c-20.43-25.44-32.6-57.48-32.6-92.3
				c0-28.25,8.02-54.69,21.97-77.25c8.21,7.45,18.61-10.22,26.29-11.16c-0.14,1.08,0.18,2.43-0.01,3.59
				c-3.42,1.97-1.74,5.7-5.37,7.54c-0.63,6.61-15.48,23.83-5.26,29.1c-10.85,8.14-11.19,50.101,7.42,48.06
				c2.37-7.509,0.83-15,5.95-20.669c6.98-7.73,12.6-4.16,20.8-7.41c15.92-6.32,5.65-25.88,6.31-38.61
				c-6.3,0.57-12.98,1.23-19.11-0.24c-0.51-5.01,4.31-6.25,6.13-10.57c1.77-4.19,0.22-8.08,0.35-12.56
				c5.44-1.06,9.55-9.35,14.96-12.22c3.1-1.64,6.64-1.98,9.31-3.83c2.46-1.7,2.74-5.13,6.06-6.61c0.76,3.76-0.6,7.57-1.28,11.4
				l-0.97-0.17c-2.21,4.29-8.48,6.38-8.07,12.1c-0.46,6.75-3.37,12.78-4.03,19.35c-0.83,8.26,2.31,12.48,5.45,19.55
				c3,6.79,6.37,10.1,9.25,16.58c2.58,5.83,3.81,10.1,9.33,13.79c-1-5.01-2.66-14.55-5.4-19.15c10.06-1.82,9.35,12.57,12.82,19.23
				c3.29,6.31,5.85,13.729,9.77,19.18c-1.17-0.63-2.23-1.561-3.14-2.99c-0.01,2.432-1.27,2.04-2.31,3.512
				c-0.9-2.59-1.26-5.602-4.98-5.041c-1.14,1.689-0.84,5.17-1.74,6.33c-0.81,1.041-5.67,2.779-5.7,3.971
				c-0.17,6.229,7.49,6.02,11.19,3.369c-0.91,5.291-6.69,6.41-11.79,5.41c0.19,0-0.87-1.439-0.97-1.591v-0.01
				c-0.01-0.011-0.01-0.011,0,0.01c-0.72,1.66-0.7,1.91,0.14,4c12.72,0.75,22.94,7.462,27.88-5.42c0.24,1.552,1.57,3.07,1.95,4.61
				c4.64,0.82,5.47-2.41,4.77-5.811c4,1.42,8.1,2.541,12.05,4.319c3.41,1.54,8.35,4.771,11.25,7.3c2.71,2.37,5.69,7.971,10.36,7.102
				c4.99-7.82,6.43,5.77,4.96,9.83c-1.76,4.84-4.56,9.18-5.82,15.108c-1.1,5.16-4.27,12.48-3.84,17.94
				c0.53,6.479,5.49,8.55,9.68,13.13c3.67,4.01,6.62,9.72,11.47,13.319C266.587,349.531,271.467,348.081,274.667,355.301z
				 M168.157,276.331c4.96,0.25,18.27-2.438,16.85-7.979c-9.24-0.431-17.35,2.771-26.61,2.34c-4.88-0.229-23.26-4.021-24.19,2.25
				c-5.98,0.261-17.71,1.729-22.64,0.811c-8.18-1.529-10.32-8.648-19.88-7.8c0.48,0.8,0.79,3.01,1.43,3.95
				c-3.49,0.979-17.7-4.15-11.46,5.209l-0.56,0.371c1.53,3.979,6.45,4.72,8.87,7.26c2.38,2.49,4.01,6.88,7.12,9.609
				c0.24-4.17,0.04-8.529,0.28-12.699c0.77-0.01,1.51-0.521,2.08-0.82c5.13,4.271,18.63,0.811,25.2,1.49
				c8.19,0.85,14.11,2.729,21.62-0.791c4.02-1.879,6.09-4.59,12.25-4.85C162.197,274.521,165.157,276.182,168.157,276.331z"/>
			<path fill="#037F00" d="M256.977,238.891c7.01-0.79,17.15-2.44,19.2,3.36c-5.05,0.181-24.33,5.851-22.54-3.08
				C254.617,239.131,255.747,239.021,256.977,238.891z"/>
			<path fill="#FFFFFF" d="M231.957,233.081l-0.05-0.34c1.15-4.15,0.44-8.8,4.84-9.5c3.66-0.57,7.52,3.51,9.54,5.61
				c0.19,3.72,0.64,7.6-0.85,11.04c-0.61-0.22-1.48-0.51-2.24-0.78c-2.51,2.189-4.61,5.75-6.08,8.479
				c-0.04-0.17-0.08-0.329-0.13-0.488v-0.012c0-1.92-1.02-3.55-1.19-5.34c-3.29-1.07-5.68-0.318-6.45,2.96
				c-5.18,1.062-10.28-1.528-6.91-6.93c1.44-2.3,4.37-0.03,6.3-1.13C230.717,235.521,229.827,234.201,231.957,233.081z"/>
			<path fill="#FFFFFF" d="M190.257,247.602c1.04-1.471,2.3-1.08,2.31-3.511c0.91,1.431,1.97,2.36,3.14,2.99
				c3.68,2,8.33,1.101,12,4.03c1.33,1.06,2.76,3.74,3.3,6.32c0.7,3.398-0.13,6.629-4.77,5.81c-0.38-1.54-1.71-3.06-1.95-4.61
				c-4.94,12.881-15.16,6.17-27.88,5.42c-0.84-2.09-0.86-2.34-0.14-4c0.1,0.15,1.16,1.592,0.97,1.592c5.1,1,10.88-0.121,11.79-5.41
				c-3.7,2.648-11.36,2.858-11.19-3.371c0.03-1.189,4.89-2.93,5.7-3.969c0.9-1.16,0.6-4.642,1.74-6.33
				C188.997,242.001,189.357,245.012,190.257,247.602z"/>
			<path fill="#FFFFFF" d="M81.657,275.111c-6.24-9.36,7.97-4.23,11.46-5.211c-0.64-0.939-0.95-3.149-1.43-3.949
				c9.56-0.85,11.7,6.271,19.88,7.8c4.93,0.92,16.66-0.55,22.64-0.81c0.93-6.271,19.31-2.48,24.19-2.25
				c9.26,0.43,17.37-2.771,26.61-2.34c1.42,5.539-11.89,8.229-16.85,7.979c-3-0.148-5.96-1.811-9.64-1.648
				c-6.16,0.26-8.23,2.969-12.25,4.85c-7.51,3.52-13.43,1.64-21.62,0.789c-6.57-0.68-20.07,2.781-25.2-1.489
				c-0.57,0.3-1.31,0.812-2.08,0.819c-0.24,4.171-0.04,8.531-0.28,12.701c-3.11-2.73-4.74-7.121-7.12-9.61
				c-2.42-2.54-7.34-3.28-8.87-7.261L81.657,275.111z"/>
		</g>
	</g>
</g>
<g id="XMLID_2_">
	<g>
		<path fill="#87808C" d="M460.92,59.58c0.18,3.53,1.33,11.17-2.9,12.44c-5.108,1.55-6.8-4.98-5.43-8.43
			c3.5,0.19,4.41-2.39,5.32-4.85C458.4,59.66,459.3,59.93,460.92,59.58z"/>
		<path fill="#87808C" d="M455.92,46.58c0.24,4.71-2.38,8.97-2,12.84c-4.12,0.64-7.33-0.74-8.92-4.42c-1.49-3.44-1.09-11.12,4.5-8.5
			h0.5C451.97,46.51,453.98,46.48,455.92,46.58z"/>
		<path fill="#87808C" d="M442.67,39v-0.49c2.62,0.24,2.71,2.93,2.26,5.42c-4.238,1.64-8.93,0.82-7.85-4.85
			C438.91,38.98,440.81,39.01,442.67,39z"/>
		<path fill="#87808C" d="M444.92,64.08c0.25,1.98-0.11,3.94-0.51,5.83c-2.88,2.18-1.602,3.54-5.41,4.59
			c-2.6,0.72-5.27-0.13-7.01-1.49c-6.5-5.05-0.38-7.98,1.1-12.42c3.47-0.2,6.26-0.33,8.96,1.33L442,62
			C442.98,63.31,442.94,64.31,444.92,64.08z"/>
		<path fill="#87808C" d="M440.8,31.83c-1.96,7.02-8.63,3.29-12.75,8.07c-3.06-1.68-6.43-3.88-9.88-5.07
			c-0.29-1,0.03-1.85-0.17-2.83l-0.04-0.12c3.6-1.18,7.47-1.82,11.49-1.82C433.42,30.06,437.24,30.68,440.8,31.83z"/>
		<path fill="#87808C" d="M431.95,44.24c1.46-0.33,2.99-0.4,4.49-0.18c-0.142,3.68-3.29,5.8-2.5,9.77
			c-7.672,2.2-7.25,5.97-11.44,11.22c-2.37-1.13-3.07-3.48-5-4.55c-1.89-1.04-5.25-1.49-7.43-2.07c-1.65-5.19-0.32-12.36,4.29-15.57
			c6.35-4.4,11.528,4,17.64,1.64L431.95,44.24z"/>
		<path fill="#BFBFBF" d="M457.91,58.74c-0.91,2.46-1.82,5.04-5.32,4.85c-1.37,3.45,0.32,9.98,5.43,8.43
			c4.23-1.27,3.08-8.91,2.9-12.44C459.3,59.93,458.4,59.66,457.91,58.74z M442.05,61.92c-2.7-1.66-5.49-1.53-8.96-1.33
			c-1.479,4.44-7.6,7.37-1.1,12.42c1.74,1.36,4.41,2.21,7.01,1.49c3.81-1.05,2.53-2.41,5.41-4.59c0.398-1.89,0.76-3.85,0.51-5.83
			c-1.979,0.23-1.938-0.77-2.92-2.08L442.05,61.92z M432,44.5c-6.11,2.36-11.29-6.04-17.64-1.64c-4.61,3.21-5.94,10.38-4.29,15.57
			c2.18,0.58,5.54,1.03,7.43,2.07c1.93,1.07,2.63,3.42,5,4.55c4.19-5.25,3.77-9.02,11.44-11.22c-0.79-3.97,2.358-6.09,2.5-9.77
			c-1.5-0.22-3.03-0.15-4.49,0.18L432,44.5z M412.08,64.42c-0.07-0.25,0.04-1.3-0.08-1.42l0.12-0.17c-1.99-1.45-3.9-2.28-6.54-2.25
			c-0.18,3.04,6.57,7.66,8.97,4.92C413.63,65.14,413.44,64.6,412.08,64.42z M418,32c0.2,0.98-0.12,1.83,0.17,2.83
			c3.45,1.19,6.82,3.39,9.88,5.07c4.12-4.78,10.79-1.05,12.75-8.07c14.01,4.55,24.102,17.26,24.102,32.23c0,18.78-15.87,34-35.45,34
			S394,82.84,394,64.06c0-14.92,10.02-27.6,23.96-32.18L418,32z M437.08,39.08c-1.08,5.67,3.61,6.49,7.85,4.85
			c0.45-2.49,0.36-5.18-2.26-5.42V39C440.81,39.01,438.91,38.98,437.08,39.08z M453.92,59.42c-0.38-3.87,2.24-8.13,2-12.84
			c-1.938-0.1-3.95-0.07-5.92-0.08h-0.5c-5.59-2.62-5.99,5.06-4.5,8.5C446.59,58.68,449.8,60.06,453.92,59.42z"/>
		<path fill="#87808C" d="M412.08,64.42c1.36,0.18,1.55,0.72,2.47,1.08c-2.398,2.74-9.148-1.88-8.97-4.92
			c2.64-0.03,4.55,0.8,6.54,2.25L412,63C412.12,63.12,412.01,64.17,412.08,64.42z"/>
	</g>
</g>
<polygon fill="#FFF100" points="548.063,292.352 555.241,299.864 565.5,298.21 560.574,307.359 565.317,316.604 555.094,314.746 
	547.767,322.115 546.375,311.817 537.104,307.126 546.466,302.62 "/>
<polygon fill="#FFF100" points="394,433.844 393.803,444.934 402.827,451.382 392.221,454.622 388.875,465.196 382.516,456.109 
	371.425,456.196 378.104,447.34 374.593,436.819 385.078,440.433 "/>
<polygon fill="#FFF100" points="52.75,52.768 62.024,53.976 68.276,47.021 69.994,56.214 78.541,60.011 70.328,64.485 
	69.358,73.787 62.565,67.359 53.418,69.311 57.433,60.864 "/>
<polygon fill="#FFF100" points="78.541,426.813 72.928,434.789 76.317,443.936 66.997,441.063 59.346,447.112 59.198,437.359 
	51.08,431.952 60.31,428.798 62.943,419.406 68.795,427.21 "/>
<polygon fill="#FFF100" points="573.063,90.094 578.66,93.23 584.418,90.397 583.164,96.69 587.638,101.291 581.266,102.043 
	578.273,107.719 575.588,101.892 569.265,100.799 573.979,96.445 "/>
<polygon fill="#FFF100" points="615.25,447.112 611.063,449.179 610.392,453.8 607.133,450.456 602.53,451.245 604.703,447.112 
	602.53,442.979 607.133,443.769 610.392,440.425 611.063,445.046 "/>
</svg>
