<?xml version="1.0" encoding="utf-8"?>
<!-- Generator: Adobe Illustrator 22.0.1, SVG Export Plug-In . SVG Version: 6.00 Build 0)  -->
<svg version="1.1" baseProfile="tiny" id="Layer_1" xmlns="http://www.w3.org/2000/svg" xmlns:xlink="http://www.w3.org/1999/xlink"
	 x="0px" y="0px" viewBox="0 0 182 46" xml:space="preserve">
<path fill="#2E3192" d="M13.2,0.3h14.6l13.3,19.3H30.6l-2.4-3.5H13l-2.4,3.5H0L13.2,0.3z M15.7,12.3h9.9l-5-7L15.7,12.3z"/>
<path fill="#2E3192" d="M56.8,0.3v19.3H45.5V0.3H56.8z"/>
<path fill="#2E3192" d="M86.7,19.7H72L58.7,0.3h10.5l10.1,14l10.1-14h10.5L86.7,19.7z"/>
<path fill="#2E3192" d="M105.8,0.3h14.6l13.3,19.3h-10.5l-2.4-3.5h-15.2l-2.4,3.5H92.7L105.8,0.3z M108.4,12.3h9.9l-5-7L108.4,12.3z
	"/>
<path fill="#2E3192" d="M135.6,0.3h14.6l8.7,10.1l8.7-10.1h14.3v19.3h-9.1V7.4L163,19.7h-8.4l-9.8-12.2v12.2h-9.2V0.3z"/>
<rect y="23.9" fill="#FF931E" width="134.2" height="4.4"/>
<rect x="135.7" y="23.9" fill="#FF931E" width="14.5" height="4.4"/>
<rect x="151.6" y="23.9" fill="#FF931E" width="14.5" height="4.4"/>
<rect x="167.4" y="23.9" fill="#FF931E" width="14.5" height="4.4"/>
<g>
	<path fill="#2E3192" d="M1.7,32.4h0.9L4.2,36h-1L3,35.2H1.2L0.9,36H0L1.7,32.4z M1.5,34.7h1.2l-0.6-1.4L1.5,34.7z"/>
	<path fill="#2E3192" d="M5.7,34.4c-0.7-0.1-1.3-0.4-1.3-1c0-0.7,1-1,1.8-1c0.9,0,1.7,0.4,1.7,1.1H7.1c-0.1-0.4-0.5-0.6-0.9-0.6
		c-0.4,0-0.9,0.1-0.9,0.4c0,0.2,0.3,0.4,0.6,0.4l0.6,0.1C7.2,34,8,34.2,8,34.9C8,35.7,7.1,36,6.2,36c-1.1,0-1.8-0.5-1.9-1.2h0.8
		c0.1,0.5,0.6,0.7,1.1,0.7c0.4,0,0.9-0.1,0.9-0.5c0-0.3-0.3-0.4-0.8-0.5L5.7,34.4z"/>
	<path fill="#2E3192" d="M9.8,34.4c-0.7-0.1-1.3-0.4-1.3-1c0-0.7,1-1,1.8-1c0.9,0,1.7,0.4,1.7,1.1h-0.9c-0.1-0.4-0.5-0.6-0.9-0.6
		c-0.4,0-0.9,0.1-0.9,0.4c0,0.2,0.3,0.4,0.6,0.4l0.6,0.1c0.7,0.1,1.5,0.3,1.5,1.1c0,0.7-0.9,1.1-1.8,1.1c-1.1,0-1.8-0.5-1.9-1.2h0.8
		c0.1,0.5,0.6,0.7,1.1,0.7c0.4,0,0.9-0.1,0.9-0.5c0-0.3-0.3-0.4-0.8-0.5L9.8,34.4z"/>
	<path fill="#2E3192" d="M14.6,36c-1.3,0-2.2-0.7-2.2-1.8s0.9-1.8,2.2-1.8s2.2,0.7,2.2,1.8S16,36,14.6,36z M14.6,35.5
		c0.7,0,1.3-0.4,1.3-1.3c0-0.8-0.6-1.3-1.3-1.3s-1.3,0.4-1.3,1.3C13.4,35,13.9,35.5,14.6,35.5z"/>
	<path fill="#2E3192" d="M21.4,34.8c-0.1,0.7-0.9,1.2-1.9,1.2c-1.3,0-2.1-0.7-2.1-1.9c0-1.1,0.8-1.8,2.1-1.8c1,0,1.7,0.5,1.9,1.2
		h-0.8c-0.1-0.4-0.6-0.7-1.1-0.7c-0.7,0-1.2,0.4-1.2,1.3c0,0.8,0.5,1.3,1.2,1.3c0.5,0,1-0.3,1.1-0.7H21.4z"/>
	<path fill="#2E3192" d="M22.8,36h-0.9v-3.5h0.9V36z"/>
	<path fill="#2E3192" d="M24.8,32.4h0.9l1.7,3.5h-1l-0.3-0.7h-1.7L24,36h-0.9L24.8,32.4z M24.6,34.7h1.2l-0.6-1.4L24.6,34.7z"/>
	<path fill="#2E3192" d="M28.1,33h-1.4v-0.6h3.6V33H29v3h-0.9L28.1,33z"/>
	<path fill="#2E3192" d="M31.7,36h-0.9v-3.5h0.9V36z"/>
	<path fill="#2E3192" d="M34.5,36c-1.3,0-2.2-0.7-2.2-1.8s0.9-1.8,2.2-1.8c1.3,0,2.2,0.7,2.2,1.8S35.8,36,34.5,36z M34.5,35.5
		c0.7,0,1.3-0.4,1.3-1.3c0-0.8-0.6-1.3-1.3-1.3c-0.7,0-1.3,0.4-1.3,1.3C33.2,35,33.8,35.5,34.5,35.5z"/>
	<path fill="#2E3192" d="M39.9,36l-1.8-2.7V36h-0.8v-3.5h1.1l1.8,2.7v-2.7H41V36H39.9z"/>
	<path fill="#2E3192" d="M44.5,32.4c1.4,0,2.5,0.4,2.5,1.8c0,1.4-1,1.8-2.5,1.8h-1.3v-3.5H44.5z M44.5,33h-0.4v2.4h0.4
		c0.8,0,1.6-0.2,1.6-1.2S45.3,33,44.5,33L44.5,33z"/>
	<path fill="#2E3192" d="M47.6,32.4h3.2V33h-2.4v0.9h2.2v0.6h-2.2v1h2.4v0.6h-3.2V32.4z"/>
	<path fill="#2E3192" d="M52.6,34.4c-0.7-0.1-1.3-0.4-1.3-1c0-0.7,1-1,1.8-1c0.9,0,1.7,0.4,1.7,1.1h-0.8c-0.1-0.4-0.5-0.6-0.9-0.6
		c-0.4,0-0.9,0.1-0.9,0.4c0,0.2,0.3,0.4,0.6,0.4l0.6,0.1c0.7,0.1,1.5,0.3,1.5,1.1c0,0.7-0.9,1.1-1.8,1.1c-1.1,0-1.8-0.5-1.9-1.2H52
		c0.1,0.5,0.6,0.7,1.1,0.7c0.4,0,0.9-0.1,0.9-0.5c0-0.3-0.3-0.4-0.8-0.5L52.6,34.4z"/>
	<path fill="#2E3192" d="M57.7,36h-0.9v-3.5h0.9V36z"/>
	<path fill="#2E3192" d="M60.4,36l-1.1-2.7V36h-0.8v-3.5h1.3l1.1,2.8l1-2.8h1.3V36h-0.8v-2.7L61.3,36L60.4,36z"/>
	<path fill="#2E3192" d="M65.5,32.4c0.9,0,2,0.1,2,1.2c0,0.9-0.9,1.1-1.9,1.1h-0.7V36H64v-3.5H65.5z M64.8,33v1.2h0.7
		c0.5,0,1-0.1,1-0.6c0-0.6-0.6-0.6-1-0.6L64.8,33z"/>
	<path fill="#2E3192" d="M69.9,36c-1.3,0-2.2-0.7-2.2-1.8s0.9-1.8,2.2-1.8c1.3,0,2.2,0.7,2.2,1.8S71.2,36,69.9,36z M69.9,35.5
		c0.7,0,1.3-0.4,1.3-1.3c0-0.8-0.6-1.3-1.3-1.3c-0.7,0-1.3,0.4-1.3,1.3C68.6,35,69.2,35.5,69.9,35.5z"/>
	<path fill="#2E3192" d="M74.5,34.6h-0.9V36h-0.9v-3.5h1.5c1.5,0,2,0.3,2,1.1c0,0.4-0.3,0.8-0.8,0.9l1,1.5h-1L74.5,34.6z M73.6,33
		V34h0.7c0.7,0,1-0.2,1-0.5c0-0.4-0.4-0.5-1-0.5L73.6,33z"/>
	<path fill="#2E3192" d="M77.7,33h-1.4v-0.6h3.6V33h-1.4v3h-0.9V33z"/>
	<path fill="#2E3192" d="M81,32.4h0.9l1.7,3.5h-1l-0.3-0.7h-1.7L80.2,36h-0.9L81,32.4z M80.8,34.7h1.2l-0.6-1.4L80.8,34.7z"/>
	<path fill="#2E3192" d="M84.4,33H83v-0.6h3.6V33h-1.4v3h-0.9L84.4,33z"/>
	<path fill="#2E3192" d="M87,32.4h3.2V33h-2.4v0.9h2.2v0.6h-2.2v1h2.4v0.6H87V32.4z"/>
	<path fill="#2E3192" d="M91.6,32.4v2c0,0.6,0.2,1,1,1s1-0.4,1-1v-2h0.9v2c0,1.2-0.5,1.6-1.8,1.6s-1.8-0.4-1.8-1.6v-2H91.6z"/>
	<path fill="#2E3192" d="M97,34.6H96V36h-0.9v-3.5h1.5c1.5,0,2,0.3,2,1.1c0,0.4-0.3,0.8-0.8,0.9l1,1.5h-1L97,34.6z M96,33V34h0.7
		c0.7,0,1-0.2,1-0.5c0-0.4-0.4-0.5-1-0.5L96,33z"/>
	<path fill="#2E3192" d="M100.5,34.4c-0.7-0.1-1.3-0.4-1.3-1c0-0.7,1-1,1.8-1c0.9,0,1.7,0.4,1.7,1.1h-0.8c-0.1-0.4-0.5-0.6-0.9-0.6
		c-0.4,0-0.9,0.1-0.9,0.4c0,0.2,0.3,0.4,0.6,0.4l0.6,0.1c0.7,0.1,1.5,0.3,1.5,1.1c0,0.7-0.9,1.1-1.8,1.1c-1.1,0-1.8-0.5-1.9-1.2h0.8
		c0.1,0.5,0.6,0.7,1.1,0.7c0.4,0,0.9-0.1,0.9-0.5c0-0.3-0.3-0.4-0.8-0.5L100.5,34.4z"/>
	<path fill="#2E3192" d="M106,32.4c1.4,0,2.5,0.4,2.5,1.8c0,1.4-1,1.8-2.5,1.8h-1.3v-3.5H106z M106,33h-0.4v2.4h0.4
		c0.8,0,1.6-0.2,1.6-1.2S106.8,33,106,33L106,33z"/>
	<path fill="#2E3192" d="M109.1,32.4h3.2V33H110v0.9h2.2v0.6H110v1h2.4v0.6h-3.2V32.4z"/>
	<path fill="#2E3192" d="M114.8,32.4l1,2.7l1-2.7h0.9l-1.5,3.5h-0.9l-1.5-3.5H114.8z"/>
	<path fill="#2E3192" d="M118.2,32.4h3.2V33h-2.4v0.9h2.2v0.6h-2.2v1h2.4v0.6h-3.2V32.4z M120.2,32.2h-0.7l0.6-0.6h1L120.2,32.2z"/>
	<path fill="#2E3192" d="M125.8,32.4V36h-0.9v-1.5h-2V36H122v-3.5h0.9v1.4h2v-1.4H125.8z"/>
	<path fill="#2E3192" d="M127.4,36h-0.9v-3.5h0.9V36z"/>
	<path fill="#2E3192" d="M132.1,34.8c-0.1,0.7-0.9,1.2-1.9,1.2c-1.3,0-2.1-0.7-2.1-1.9c0-1.1,0.8-1.8,2.1-1.8c1,0,1.7,0.5,1.9,1.2
		h-0.8c-0.1-0.4-0.6-0.7-1.1-0.7c-0.7,0-1.2,0.4-1.2,1.3c0,0.8,0.5,1.3,1.2,1.3c0.5,0,1-0.3,1.1-0.7H132.1z"/>
	<path fill="#2E3192" d="M133.4,32.4v2c0,0.6,0.2,1,1,1s1-0.4,1-1v-2h0.9v2c0,1.2-0.5,1.6-1.8,1.6c-1.3,0-1.8-0.4-1.8-1.6v-2H133.4z
		"/>
	<path fill="#2E3192" d="M137.9,35.4h2.2V36h-3v-3.5h0.9L137.9,35.4z"/>
	<path fill="#2E3192" d="M140.4,32.4h3.3V33h-2.4v0.9h2.2v0.6h-2.2v1h2.4v0.6h-3.2L140.4,32.4z"/>
	<path fill="#2E3192" d="M145.4,34.4c-0.7-0.1-1.3-0.4-1.3-1c0-0.7,1-1,1.8-1c0.9,0,1.7,0.4,1.7,1.1h-0.8c-0.1-0.4-0.5-0.6-0.9-0.6
		c-0.4,0-0.9,0.1-0.9,0.4c0,0.2,0.3,0.4,0.6,0.4l0.6,0.1c0.7,0.1,1.5,0.3,1.5,1.1c0,0.7-0.9,1.1-1.8,1.1c-1.1,0-1.8-0.5-1.9-1.2h0.8
		c0.1,0.5,0.6,0.7,1.1,0.7c0.4,0,0.9-0.1,0.9-0.5c0-0.3-0.3-0.4-0.8-0.5L145.4,34.4z"/>
	<path fill="#2E3192" d="M150.9,32.4h0.9l1.7,3.5h-1l-0.3-0.7h-1.7l-0.3,0.7h-0.9L150.9,32.4z M150.7,34.7h1.2l-0.6-1.4L150.7,34.7z
		"/>
	<path fill="#2E3192" d="M154.5,32.4v2c0,0.6,0.2,1,1,1c0.8,0,1-0.4,1-1v-2h0.9v2c0,1.2-0.5,1.6-1.8,1.6s-1.8-0.4-1.8-1.6v-2H154.5z
		"/>
	<path fill="#2E3192" d="M161.3,36l-1.1-2.7V36h-0.8v-3.5h1.3l1.1,2.8l1-2.8h1.3V36h-0.8v-2.7l-1.1,2.7L161.3,36z"/>
	<path fill="#2E3192" d="M166.1,32.4h0.9l1.7,3.5h-1l-0.3-0.7h-1.7l-0.3,0.7h-0.9L166.1,32.4z M165.9,34.7h1.2l-0.6-1.4L165.9,34.7z
		"/>
	<path fill="#2E3192" d="M170.8,34.6h-0.9V36H169v-3.5h1.5c1.5,0,2,0.3,2,1.1c0,0.4-0.3,0.8-0.8,0.9l1,1.5h-1L170.8,34.6z M169.9,33
		V34h0.7c0.7,0,1-0.2,1-0.5c0-0.4-0.4-0.5-1-0.5L169.9,33z"/>
	<path fill="#2E3192" d="M175.2,36c-1.3,0-2.2-0.7-2.2-1.8s0.9-1.8,2.2-1.8s2.2,0.7,2.2,1.8S176.5,36,175.2,36z M175.2,35.5
		c0.7,0,1.3-0.4,1.3-1.3c0-0.8-0.6-1.3-1.3-1.3s-1.3,0.4-1.3,1.3C173.9,35,174.5,35.5,175.2,35.5z"/>
	<path fill="#2E3192" d="M181.9,34.8c-0.1,0.7-0.9,1.2-1.9,1.2c-1.3,0-2.1-0.7-2.1-1.9c0-1.1,0.8-1.8,2.1-1.8c1,0,1.7,0.5,1.9,1.2
		H181c-0.1-0.4-0.6-0.7-1.1-0.7c-0.7,0-1.2,0.4-1.2,1.3c0,0.8,0.5,1.3,1.2,1.3c0.5,0,1-0.3,1.1-0.7H181.9z"/>
	<path fill="#2E3192" d="M6.9,40.8v1.8c0.1,0.5-0.4,0.9-1,1c-0.1,0-0.1,0-0.2,0H2.9c-1.6,0-2.4-0.6-2.4-1.7v-1h0.9v1
		c0,0.3,0.1,0.6,0.4,0.8c0.3,0.1,0.7,0.2,1,0.2h2.1c0.3,0,0.6,0,0.8-0.1c0.2-0.2,0.4-0.4,0.3-0.6v-1.3L6.9,40.8z M4.4,44.9H3.5v-0.7
		h0.8V44.9z"/>
	<path fill="#2E3192" d="M10.7,43.6H9.3c-0.1,0.7-0.8,1-1.9,1V44c0.7,0,1.1-0.3,1.1-0.9v-2.3h0.9v2.1h1.3L10.7,43.6z"/>
	<path fill="#2E3192" d="M12.1,43.6h-1.7v-0.7h1.7V43.6z"/>
	<path fill="#2E3192" d="M13.6,43.6h-1.7v-0.7h1.7V43.6z"/>
	<path fill="#2E3192" d="M15.2,43.6h-1.7v-0.7h1.7V43.6z"/>
	<path fill="#2E3192" d="M20.8,43.6h-1.6c-0.2,0-0.5-0.1-0.7-0.1c-0.2-0.1-0.4-0.2-0.5-0.3c-0.5,0.3-1.1,0.4-1.7,0.4H15v-0.7h1.3
		c0.2,0,0.4,0,0.6,0c0.2,0,0.4-0.1,0.6-0.2c-0.2-0.2-0.4-0.3-0.7-0.5c-0.3-0.2-0.6-0.3-0.9-0.3v-0.6c0.6-0.3,1.3-0.5,2.1-0.5
		c0.8,0,1.6,0.2,2.2,0.6c-0.1,0.2-0.3,0.5-0.5,0.7c-0.3,0.3-0.6,0.5-0.9,0.7c0.1,0.1,0.2,0.1,0.3,0.2c0.1,0,0.2,0,0.3,0h1.4
		L20.8,43.6z M19.1,41.5c-0.3-0.2-0.7-0.2-1.1-0.2c-0.4,0-0.8,0.1-1.2,0.3c0.5,0.1,1,0.4,1.3,0.7c0.2-0.1,0.4-0.2,0.6-0.3
		C18.8,41.8,18.9,41.7,19.1,41.5L19.1,41.5z M18.4,40.2h-0.9v-0.7h0.8L18.4,40.2z"/>
	<path fill="#2E3192" d="M22.3,43.6h-1.7v-0.7h1.7L22.3,43.6z"/>
	<path fill="#2E3192" d="M23.8,43.6h-1.7v-0.7h1.7V43.6z"/>
	<path fill="#2E3192" d="M25.3,43.6h-1.7v-0.7h1.7V43.6z"/>
	<path fill="#2E3192" d="M30.2,43.6h-1.1c-0.3,0.4-0.8,0.6-1.4,0.5c-0.5,0-1.1-0.2-1.4-0.5h-1.2v-0.7h0.8c0-0.1,0-0.1,0-0.2
		c0-0.4,0.2-0.7,0.5-1c0.3-0.3,0.8-0.4,1.3-0.4c0.5,0,0.9,0.1,1.3,0.4c0.3,0.3,0.5,0.6,0.5,1v0.2h0.8V43.6z M28.5,42.7
		c0-0.2-0.1-0.4-0.2-0.6c-0.2-0.2-0.4-0.3-0.7-0.3c-0.2,0-0.5,0.1-0.6,0.2c-0.1,0.2-0.2,0.3-0.2,0.5c-0.1,0.4,0.3,0.8,0.8,0.8
		c0,0,0,0,0,0c0.2,0,0.5-0.1,0.6-0.2C28.5,43.1,28.5,42.9,28.5,42.7L28.5,42.7z"/>
	<path fill="#2E3192" d="M31.6,43.6h-1.7v-0.7h1.7V43.6z"/>
	<path fill="#2E3192" d="M33.2,43.6h-1.7v-0.7h1.7V43.6z"/>
	<path fill="#2E3192" d="M34.7,43.6H33v-0.7h1.7V43.6z"/>
	<path fill="#2E3192" d="M36.7,42.5c0,0.7-0.4,1.1-1.3,1.1h-0.9v-0.7h0.7c0.2,0,0.4-0.1,0.5-0.2c0.1-0.1,0.1-0.3,0.1-0.4v-2.6h0.9
		L36.7,42.5z"/>
	<path fill="#2E3192" d="M39.7,43.6h-1c-0.4,0-0.7-0.1-1-0.3c-0.2-0.2-0.3-0.5-0.3-0.8v-2.8h0.9v2.6c0,0.2,0.1,0.4,0.2,0.6
		c0.2,0.1,0.4,0.1,0.7,0.1h0.5V43.6z"/>
	<path fill="#2E3192" d="M41.2,43.6h-1.7v-0.7h1.7V43.6z"/>
	<path fill="#2E3192" d="M42.7,43.6H41v-0.7h1.7V43.6z"/>
	<path fill="#2E3192" d="M44.2,43.6h-1.7v-0.7h1.7L44.2,43.6z"/>
	<path fill="#2E3192" d="M46.2,42.5c0,0.7-0.4,1.1-1.3,1.1h-0.8v-0.7h0.7c0.2,0,0.4-0.1,0.5-0.2c0.1-0.1,0.1-0.3,0.1-0.4v-1.4h0.9
		L46.2,42.5z M46.2,44.9h-0.8v-0.7h0.8V44.9z"/>
	<path fill="#2E3192" d="M55,40.8v1.8c0.1,0.5-0.4,0.9-1,1c-0.1,0-0.1,0-0.2,0H51c-1.6,0-2.4-0.6-2.4-1.7v-1h0.9v1
		c0,0.3,0.1,0.6,0.4,0.8c0.3,0.1,0.7,0.2,1,0.2H53c0.3,0,0.6,0,0.8-0.1c0.2-0.2,0.4-0.4,0.3-0.6v-1.3L55,40.8z M51.5,40.8h-0.8v-0.7
		h0.8V40.8z M52.9,40.8h-0.8v-0.7h0.8V40.8z"/>
	<path fill="#2E3192" d="M56.7,43.6h-0.9v-4h0.9V43.6z"/>
	<path fill="#2E3192" d="M59.2,40.8V43c0,1.1-0.6,1.6-1.9,1.6V44c0.7,0,1.1-0.3,1.1-0.9v-2.3H59.2z"/>
	<path fill="#2E3192" d="M62.2,43.6h-1c-0.4,0-0.7-0.1-1-0.3C60,43,59.9,42.7,60,42.5v-2.8h0.9v2.6c0,0.2,0.1,0.4,0.2,0.6
		c0.2,0.1,0.4,0.1,0.7,0.1h0.5L62.2,43.6z"/>
	<path fill="#2E3192" d="M63.7,43.6H62v-0.7h1.7V43.6z"/>
	<path fill="#2E3192" d="M65.2,43.6h-1.7v-0.7h1.7V43.6z"/>
	<path fill="#2E3192" d="M65.8,44.9h-0.8v-0.7h0.8V44.9z M68.5,43.6H65v-0.7h0.8c0.2,0,0.4-0.1,0.5-0.2c0.1-0.1,0.1-0.3,0.1-0.5
		v-1.4h0.9v1.4c0,0.2,0,0.5-0.2,0.7h1.4L68.5,43.6z M67.3,44.9h-0.8v-0.7h0.8V44.9z"/>
	<path fill="#2E3192" d="M70,43.6h-1.7v-0.7H70V43.6z"/>
	<path fill="#2E3192" d="M71.6,43.6h-1.7v-0.7h1.7V43.6z"/>
	<path fill="#2E3192" d="M73.1,43.6h-1.7v-0.7h1.7V43.6z"/>
	<path fill="#2E3192" d="M72.9,43.6v-0.7h0.8c0.4,0,0.7-0.2,0.7-0.7v-1.4h0.9v1.3c0,0.2,0,0.5-0.1,0.7v0h0.8c0.4,0,0.7-0.2,0.7-0.7
		v-1.4h0.9v1.3c0,0.3,0,0.5-0.2,0.7H78c0.4,0,0.7-0.2,0.7-0.7v-1.4h0.9v1.3c0,0.3-0.1,0.5-0.2,0.8h1.3v0.7L72.9,43.6z"/>
	<path fill="#2E3192" d="M82.1,43.6h-1.7v-0.7h1.7V43.6z"/>
	<path fill="#2E3192" d="M83.7,43.6h-1.7v-0.7h1.7L83.7,43.6z"/>
	<path fill="#2E3192" d="M85.2,43.6h-1.7v-0.7h1.7V43.6z"/>
	<path fill="#2E3192" d="M87.2,42.5c0,0.7-0.4,1.1-1.3,1.1H85v-0.7h0.7c0.2,0,0.4-0.1,0.5-0.2c0.1-0.1,0.1-0.3,0.1-0.4v-2.6h0.9
		V42.5z"/>
	<path fill="#2E3192" d="M88.8,43.6H88v-4h0.9V43.6z"/>
	<path fill="#2E3192" d="M96.5,42.5c0,0.6-0.3,1.1-0.8,1.5c-0.5,0.4-1.2,0.6-1.9,0.6h-0.1c-0.7,0-1.4-0.2-1.9-0.6
		c-0.5-0.4-0.8-0.9-0.8-1.5v-0.7H92v0.6c0,0.4,0.1,0.8,0.5,1.1c0.3,0.3,0.8,0.5,1.3,0.4c1.1,0,1.7-0.5,1.8-1.4h-2c0-1.3,0.9-2,2.6-2
		v0.6c-0.3,0-0.7,0-1,0.1c-0.3,0.1-0.5,0.3-0.6,0.6h1.9V42.5z M93.5,45.9h-0.8v-0.7h0.8V45.9z M95,45.9h-0.8v-0.7H95V45.9z"/>
	<path fill="#2E3192" d="M100.9,43.6h-3.7v-0.7h2.8c0-0.8-0.4-1.3-1.2-1.4c-0.3,0-0.5-0.1-0.8-0.1v-0.6c0.4,0,0.7,0,0.8,0
		c0.2,0,0.3,0,0.5,0.1c1,0.3,1.5,0.9,1.6,2L100.9,43.6z"/>
	<path fill="#2E3192" d="M103.4,40.8V43c0,1.1-0.6,1.6-1.9,1.6V44c0.7,0,1.1-0.3,1.1-0.9v-2.3H103.4z"/>
	<path fill="#2E3192" d="M108.5,43.6h-1c-0.1,0.7-0.7,1-1.7,1V44c0.4,0,0.8-0.2,0.9-0.5h-0.8c-1,0-1.7-0.7-1.7-1.4
		c0-0.7,0.7-1.3,1.6-1.4c0,0,0.1,0,0.1,0c0.9,0,1.6,0.6,1.6,1.4v0.7h1L108.5,43.6z M106.6,42.9V42c0-0.3-0.3-0.6-0.7-0.6
		c0,0,0,0,0,0c-0.4,0-0.8,0.3-0.8,0.6c0,0,0,0.1,0,0.1c0,0.4,0.3,0.7,0.8,0.8L106.6,42.9z"/>
	<path fill="#2E3192" d="M110,43.6h-1.7v-0.7h1.7V43.6z"/>
	<path fill="#2E3192" d="M111.5,43.6h-1.7v-0.7h1.7L111.5,43.6z"/>
	<path fill="#2E3192" d="M113.1,43.6h-1.7v-0.7h1.7V43.6z"/>
	<path fill="#2E3192" d="M113.7,40.2h-0.8v-0.7h0.8V40.2z M116.4,43.6h-3.6v-0.7h0.8c0.2,0,0.4-0.1,0.5-0.2c0.1-0.1,0.1-0.3,0.1-0.5
		v-1.4h0.9v1.4c0,0.2,0,0.5-0.2,0.7h1.5L116.4,43.6z M115.1,40.2h-0.8v-0.7h0.8V40.2z"/>
	<path fill="#2E3192" d="M117.9,43.6h-1.7v-0.7h1.7V43.6z"/>
	<path fill="#2E3192" d="M119.4,43.6h-1.7v-0.7h1.7V43.6z"/>
	<path fill="#2E3192" d="M121,43.6h-1.7v-0.7h1.7L121,43.6z"/>
	<path fill="#2E3192" d="M120.7,43.6v-0.7h0.8c0.4,0,0.7-0.2,0.7-0.7v-1.4h0.9v1.3c0,0.2,0,0.5-0.1,0.7v0h0.8c0.4,0,0.7-0.2,0.7-0.7
		v-1.4h0.9v1.3c0,0.3,0,0.5-0.2,0.7h0.8c0.4,0,0.7-0.2,0.7-0.7v-1.4h0.9v1.3c0,0.3-0.1,0.5-0.2,0.8h1.3v0.7L120.7,43.6z"/>
	<path fill="#2E3192" d="M130,43.6h-1.7v-0.7h1.7V43.6z"/>
	<path fill="#2E3192" d="M131.5,43.6h-1.7v-0.7h1.7V43.6z"/>
	<path fill="#2E3192" d="M133,43.6h-1.7v-0.7h1.7V43.6z"/>
	<path fill="#2E3192" d="M137.4,42.7c0.1,0.7-0.7,1.4-1.6,1.4c0,0-0.1,0-0.1,0c-0.6,0-1.1-0.2-1.4-0.6h-1.4v-0.7h1v0
		c0-0.1,0-0.1,0-0.2c0-0.7,0.7-1.4,1.6-1.4c0,0,0.1,0,0.1,0C136.6,41.2,137.4,41.8,137.4,42.7C137.4,42.6,137.4,42.7,137.4,42.7z
		 M136.5,42.7c0-0.5-0.3-0.8-0.9-0.8c-0.5,0-0.8,0.3-0.8,0.8c-0.1,0.4,0.3,0.8,0.8,0.8c0,0,0,0,0.1,0
		C136.1,43.5,136.5,43.2,136.5,42.7z"/>
	<path fill="#2E3192" d="M144.6,43.6h-0.9c-0.7,0-1.3-0.4-1.4-0.9c-0.2,0.3-0.6,0.5-1,0.5c-1,0-1.6-0.6-1.6-1.4
		c0-0.9,0.6-1.5,1.6-1.5h1.9v1.9c0,0.5,0.3,0.7,0.9,0.7h0.5L144.6,43.6z M142.3,41.6v-0.9h-0.8c-0.6,0-1,0.4-1,0.9
		c0,0.5,0.3,0.9,0.8,0.9C141.9,42.6,142.3,42.1,142.3,41.6L142.3,41.6z M141.7,39.7h-0.8V39h0.8V39.7z M143.1,39.7h-0.9V39h0.8
		L143.1,39.7z"/>
	<path fill="#2E3192" d="M146.1,43.6h-1.7v-0.7h1.7V43.6z"/>
	<path fill="#2E3192" d="M147.6,43.6h-1.7v-0.7h1.7V43.6z"/>
	<path fill="#2E3192" d="M149.1,43.6h-1.7v-0.7h1.7V43.6z"/>
	<path fill="#2E3192" d="M149.8,44.9h-0.8v-0.7h0.8L149.8,44.9z M152.5,43.6h-3.6v-0.7h0.8c0.2,0,0.4-0.1,0.5-0.2
		c0.1-0.1,0.1-0.3,0.1-0.5v-1.4h0.9v1.4c0,0.2,0,0.5-0.2,0.7h1.4L152.5,43.6z M151.2,44.9h-0.8v-0.7h0.8V44.9z"/>
	<path fill="#2E3192" d="M154,43.6h-1.7v-0.7h1.7V43.6z"/>
	<path fill="#2E3192" d="M155.5,43.6h-1.7v-0.7h1.7V43.6z"/>
	<path fill="#2E3192" d="M157,43.6h-1.7v-0.7h1.7V43.6z"/>
	<path fill="#2E3192" d="M162.7,43.6H161c-0.2,0-0.5-0.1-0.7-0.1c-0.2-0.1-0.4-0.2-0.5-0.3c-0.5,0.3-1.1,0.4-1.7,0.4h-1.3v-0.7h1.3
		c0.2,0,0.4,0,0.6,0c0.2,0,0.4-0.1,0.6-0.2c-0.2-0.2-0.4-0.3-0.7-0.5c-0.3-0.2-0.6-0.3-0.9-0.3v-0.6c0.6-0.3,1.3-0.5,2.1-0.5
		c0.8,0,1.6,0.2,2.2,0.6c-0.1,0.2-0.3,0.5-0.5,0.7c-0.3,0.3-0.6,0.5-0.9,0.7c0.1,0.1,0.2,0.1,0.3,0.2c0.1,0,0.2,0,0.3,0h1.4
		L162.7,43.6z M161,41.5c-0.3-0.2-0.7-0.2-1.1-0.2c-0.4,0-0.8,0.1-1.2,0.3c0.5,0.1,1,0.4,1.3,0.7c0.2-0.1,0.4-0.2,0.6-0.3
		C160.7,41.8,160.8,41.7,161,41.5L161,41.5z"/>
	<path fill="#2E3192" d="M164.1,43.6h-1.7v-0.7h1.7V43.6z"/>
	<path fill="#2E3192" d="M165.7,43.6H164v-0.7h1.7V43.6z"/>
	<path fill="#2E3192" d="M167.2,43.6h-1.7v-0.7h1.7V43.6z"/>
	<path fill="#2E3192" d="M172,43.6h-1.1c-0.3,0.4-0.8,0.6-1.4,0.5c-0.5,0-1.1-0.2-1.4-0.5H167v-0.7h0.8c0-0.1,0-0.1,0-0.2
		c0-0.4,0.2-0.7,0.5-1c0.3-0.3,0.8-0.4,1.3-0.4c0.5,0,0.9,0.1,1.2,0.4c0.3,0.3,0.5,0.6,0.5,1v0.2h0.8L172,43.6z M170.4,42.7
		c0-0.2-0.1-0.4-0.2-0.6c-0.2-0.2-0.4-0.3-0.7-0.3c-0.2,0-0.5,0.1-0.6,0.2c-0.1,0.2-0.2,0.3-0.2,0.5c-0.1,0.4,0.3,0.8,0.8,0.8
		c0,0,0,0,0.1,0c0.2,0,0.5-0.1,0.6-0.2C170.3,43.1,170.4,42.9,170.4,42.7L170.4,42.7z"/>
	<path fill="#2E3192" d="M173.5,43.6h-1.7v-0.7h1.7V43.6z"/>
	<path fill="#2E3192" d="M175,43.6h-1.7v-0.7h1.7L175,43.6z"/>
	<path fill="#2E3192" d="M176.6,43.6h-1.7v-0.7h1.7V43.6z"/>
	<path fill="#2E3192" d="M181.7,43.1v0.4h-5.4v-0.7h4.5c0-0.4-0.1-0.7-0.4-1c-0.3-0.3-0.8-0.5-1.3-0.5c-0.2,0-0.4,0-0.6,0.1
		c-0.3,0.1-0.5,0.2-0.7,0.4c-0.1-0.1-0.2-0.3-0.4-0.5c0.2-0.2,0.5-0.3,0.8-0.4c0.8-0.3,1.7-0.2,2.5,0.2
		C181.4,41.5,181.7,42.2,181.7,43.1z M179.6,44.9h-0.8v-0.7h0.8V44.9z"/>
</g>
</svg>
