<svg xmlns="http://www.w3.org/2000/svg" width="723.633" height="357.301" viewBox="0 0 724 358"><path d="M132.376 118.246c0-35.6 9.962-87.16 37.777-118.246 27.817 31.086 37.777 82.637 37.777 118.246 0 36.417-10.796 86.22-37.777 117.67-26.975-31.452-37.777-81.254-37.777-117.67m65.535 37.37a214.23 214.23 0 0 0 3.33-37.37c0-35.168-8.627-78-31.1-108.285-22.458 30.276-31.086 73.117-31.086 108.285a214.42 214.42 0 0 0 3.313 37.524c2.328-21.697 4.418-39.912 8.777-54.933 7.327-25.244 18.996-39.254 18.996-39.254s11.672 14 18.996 39.254c4.352 14.986 6.445 33.153 8.762 54.778m-27.74-13.504s-11.033 11.385-11.033 41.3c0 33.353 11.033 43.004 11.033 43.004s11.03-9.65 11.03-43.004c0-29.905-11.03-41.3-11.03-41.3m-45.462-31.164c-172.13 11.368-160.318 244.85 0 244.85 29.567 0 66.464-12.4 86.2-35.783v-79.54h-85.83V276.6c55.794-41.922 85.1 68.814-.37 68.814-104.775 0-92.274-149.25 0-142.094v-92.373zm455.25 5.643h30.755a14.74 14.74 0 0 1 14.736 14.736V231.63c0 8.137-6.6 14.742-14.736 14.742h-30.755a14.75 14.75 0 0 1-14.741-14.742V131.325c0-8.14 6.602-14.736 14.74-14.736m20.412 101.05V145.6c0-3.64-.55-8.556-4.554-8.556s-4.55 4.915-4.55 8.556v72.048c0 3.636.543 8.556 4.55 8.556s4.554-4.92 4.554-8.555m-79.74 28.754h-25.66V116.827h44.08c15.832 0 16.345 6.9 16.345 26.203v21.864c0 13.444-3.052 15.612-9.114 18.497v.358c4.328 1.736 9.1 8.673 9.1 15.796v46.858h-25.655l.005-35.135c0-11.267 0-14.374-9.1-14.374v49.5zm0-109.28v36.016h3.097c4.186 0 6.002-2.483 6.002-8.67V145.3c0-6.188-1.816-8.187-6.002-8.187h-3.097zM276.63 246.402h12.94v-66.764h-30.278v20.687h2.057c2.934 0 2.557 3.797 2.557 3.797l.004 15.248c0 3.642-.543 5.985-4.548 5.985s-4.552-2.344-4.552-5.985v-75.514c0-3.64.546-6.817 4.552-6.817s4.548 3.176 4.548 6.817v17.908h25.66v-23.828c0-20.048-5.57-21.347-30.278-21.347-23.6 0-30.14 1.73-30.14 21.347v89.093c0 13.818 1.978 19.56 21.042 19.56 11.378 0 17.66-2.604 21.628-8.56h.367l4.44 8.373zm19.095-.002l15.826-129.576h33.112l16.4 129.576h-25.6l-1.708-24.727H322.13L320.4 246.4h-24.666zm28.47-46.07h8.37l-3.5-57.853-4.87 57.853zm91.365 25.025h-24.284l24.36-88.508v-20.02h-47.664l-.547 20.668h23.186l-25.023 93.493v15.415h49.972zm35.177 21.045h-26V116.827h45.07c15.164 0 16.345 6.366 16.345 26.204v37.038c0 16.47-4.217 22.75-18.077 22.75h-17.34v43.58zm.006-109.06v44.247h3.095c4.187 0 6.004-2.004 6.004-8.2V145.53c0-6.187-1.817-8.2-6.004-8.2h-3.095zm210 109.062v-72.84l10.564 72.84h15.563l10.233-72.84v72.84h26.53v-129.6l-35.602.013-9.845 68.444-9.154-68.444h-33.917V246.4z" fill="#0071b9"/><path d="M229.162 355.563h50.8v-9.042H239.32v-32.703h40.385v-9.044H239.32v-31.837h40.633v-9.042h-50.8zm68.196-91.668h-10.406v91.668h9.9l-.247-77.174 54.382 77.174h9.9v-91.668h-9.9l.124 76.556zm71.105 91.668h50.8v-9.042H378.62v-32.703h40.384v-9.044H378.62v-31.837h40.633v-9.042h-50.8zm57.53 0h10.28v-82.627h14.37c8.3 0 13.998.372 18.58 3.346 5.697 3.716 9.044 10.9 9.044 17.713 0 6.566-2.106 12.142-6.938 16.85-4.954 4.58-13.873 4.706-20.314 4.706h-2.975l25.892 40.013h11.15L462.3 321.252c8.424-.867 15-2.604 20.44-10.032 3.842-5.205 5.575-11.77 5.452-17.966 0-10.406-5.08-20.192-12.514-24.653-4.708-2.972-11.396-4.705-25.767-4.705h-23.908v91.667zm156.212-67.883c-7.187-14.988-24.405-25.394-42.986-25.394-26.5 0-48.065 19.82-48.065 47.32 0 27.13 21.183 47.696 47.94 47.696 18.458 0 36.792-10.037 44.72-27.256 2.728-5.697 3.97-12.4 4.1-17.714h-57.48v8.42h45.587c-1.487 7.187-5.947 14.124-12.4 19.202-6.317 4.958-14.866 8.3-24.528 8.3-20.068 0-37.66-15.36-37.66-38.65 0-22.914 17.47-38.278 37.536-38.278 8.177 0 15.36 2.353 21.3 6.44 3.964 2.604 7.433 5.95 10.28 9.912h11.645zm25.547 67.883h10.28v-32.208l29.484-59.46h-11.15l-23.414 49.55-23.536-49.55h-11.15l29.483 59.46z" fill="#009ee0"/></svg>