<?xml version="1.0" encoding="utf-8"?>
<!-- Generator: Adobe Illustrator 25.0.0, SVG Export Plug-In . SVG Version: 6.00 Build 0)  -->
<svg version="1.1"
	 id="svg2" xmlns:cc="http://creativecommons.org/ns#" xmlns:dc="http://purl.org/dc/elements/1.1/" xmlns:rdf="http://www.w3.org/1999/02/22-rdf-syntax-ns#" xmlns:svg="http://www.w3.org/2000/svg"
	 xmlns="http://www.w3.org/2000/svg" xmlns:xlink="http://www.w3.org/1999/xlink" x="0px" y="0px" viewBox="0 0 112 24"
	 style="enable-background:new 0 0 112 24;" xml:space="preserve">
<style type="text/css">
	.st0{fill-rule:evenodd;clip-rule:evenodd;fill:#AD2184;}
</style>
<g>
	<path class="st0" d="M8.1,4.4c0-1.4-0.3-2.4-1-3.2C6.3,0.4,5.3,0,4.1,0C2.8,0,1.8,0.4,1,1.2C0.3,2,0,3.1,0,4.4v12.2
		c0,3.1,1.2,5.1,3.8,6.4c1.2,0.6,2.4,1,3.8,1h2.6c-0.6-0.7-1.1-1.5-1.5-2.3C8.3,20.9,8.1,20,8.1,19V4.4 M37.3,2.4
		c-2-1.6-5-2.4-8.7-2.4c-3.8,0-6.7,0.8-8.7,2.4c-2.4,1.8-3.5,4.5-3.5,8.2v9c0,1.4,0.4,2.4,1,3.2c0.8,0.8,1.7,1.2,3.1,1.2
		c1.2,0,2.2-0.4,3-1.2c0.7-0.8,1-1.8,1-3.2v-9c0-1.3,0.3-2.4,1-3.1c0.7-0.8,1.7-1.2,3.1-1.2c1.4,0,2.4,0.4,3.1,1.2
		c0.6,0.8,1,1.8,1,3.1v9c0,1.4,0.4,2.4,1,3.2c0.8,0.8,1.7,1.2,3,1.2c1.3,0,2.3-0.4,3.1-1.2c0.7-0.8,1-1.8,1-3.2v-9
		C40.8,6.9,39.6,4.2,37.3,2.4L37.3,2.4z M87.3,1.2C86.5,0.4,85.5,0,84.2,0c-1.2,0-2.2,0.4-3,1.2c-0.7,0.8-1,1.8-1,3.2v8.9
		c0,1.4-0.3,2.4-1,3.2c-0.7,0.8-1.7,1.2-3.1,1.2c-1.4,0-2.4-0.4-3.1-1.2c-0.6-0.8-1-1.8-1-3.2V4.4c0-1.4-0.3-2.4-1-3.2
		C70.2,0.4,69.2,0,68,0c-1.3,0-2.3,0.4-3.1,1.2c-0.7,0.8-1,1.8-1,3.2v8.9c0,1.4-0.3,2.4-1,3.2c-0.7,0.8-1.7,1.2-3.1,1.2
		c-1.4,0-2.4-0.4-3.1-1.2c-0.6-0.8-1-1.8-1-3.2V4.4c0-1.4-0.4-2.4-1-3.2c-0.8-0.8-1.7-1.2-3-1.2c-1.3,0-2.3,0.4-3.1,1.2
		c-0.7,0.8-1,1.8-1,3.2v9c0,3.7,1.1,6.4,3.5,8.2c2,1.6,5,2.4,8.7,2.4c3.4,0,6.1-0.7,8.1-2c2.1,1.3,4.8,2,8.2,2
		c3.8,0,6.7-0.8,8.7-2.4c2.4-1.8,3.5-4.5,3.5-8.2v-9C88.3,3.1,88,2,87.3,1.2L87.3,1.2z M96.5,5v14.6c0,1.4,0.3,2.4,1,3.2
		c0.8,0.8,1.7,1.2,3,1.2c1.3,0,2.3-0.4,3-1.2c0.8-0.8,1.1-1.8,1.1-3.2V7.3c0-3.1-1.2-5.1-3.8-6.4c-0.8-0.4-1.7-0.7-2.6-0.8L97.1,0
		h-2.6c0.6,0.7,1.1,1.5,1.5,2.3C96.4,3.1,96.5,4,96.5,5L96.5,5z"/>
</g>
</svg>
